<?xml version="1.0" encoding="UTF-8" standalone="no"?>
<svg width="400" height="160" viewBox="0 0 400 160" xmlns="http://www.w3.org/2000/svg">
  <!-- グラデーション定義 -->
  <defs>
    <linearGradient id="brandGradient" x1="0%" y1="0%" x2="100%" y2="100%">
      <stop offset="0%" stop-color="#512da8" />
      <stop offset="100%" stop-color="#1976d2" />
    </linearGradient>
    <filter id="softShadow" x="-10%" y="-10%" width="120%" height="120%">
      <feDropShadow dx="0" dy="2" stdDeviation="2" flood-color="#000" flood-opacity="0.3"/>
    </filter>
    <filter id="softGlow" x="-10%" y="-10%" width="120%" height="120%">
      <feGaussianBlur stdDeviation="3" result="blur" />
      <feFlood flood-color="#512da8" flood-opacity="0.2" result="color"/>
      <feComposite in="color" in2="blur" operator="in" result="glowBlur"/>
      <feComposite in="SourceGraphic" in2="glowBlur" operator="over"/>
    </filter>
  </defs>

  <!-- 外側の装飾要素（完全に表示） -->
  <path d="M40,80 C80,20 320,20 360,80 C320,140 80,140 40,80" stroke="url(#brandGradient)" stroke-width="1.5" fill="none" stroke-dasharray="3,3" opacity="0.4"/>

  <!-- ミニマルな背景（中央に配置） -->
  <rect x="90" y="55" width="220" height="50" rx="25" ry="25" fill="white" filter="url(#softShadow)"/>

  <!-- Nロゴ（特徴的な形状） - これが「変なやつ」 -->
  <path d="M110,65 L110,95 L130,95 L130,65 M110,80 L130,80" stroke="url(#brandGradient)" stroke-width="6" fill="none" stroke-linecap="round" stroke-linejoin="round"/>

  <!-- 小文字のnとook文字（一緒に配置して一体感を出す） -->
  <text x="200" y="90" font-family="Arial, sans-serif" font-size="36" font-weight="bold" text-anchor="middle" fill="url(#brandGradient)">nook</text>

  <!-- AIアイコン -->
  <circle cx="270" cy="80" r="15" fill="url(#brandGradient)"/>
  <path d="M270 72 Q280 80 270 88 M270 72 Q260 80 270 88" fill="none" stroke="white" stroke-width="2.5" stroke-linecap="round"/>

  <!-- 知識を表す要素 -->
  <rect x="140" y="67" width="4" height="26" rx="2" ry="2" fill="#512da8" opacity="0.4"/>
  <rect x="240" y="67" width="4" height="26" rx="2" ry="2" fill="#1976d2" opacity="0.4"/>

  <!-- 外側の装飾的な円（完全に表示） -->
  <circle cx="200" cy="80" r="75" fill="none" stroke="url(#brandGradient)" stroke-width="1" filter="url(#softGlow)" opacity="0.3"/>

  <!-- 外部データポイント -->
  <circle cx="65" cy="80" r="6" fill="#512da8" opacity="0.6"/>
  <circle cx="335" cy="80" r="6" fill="#1976d2" opacity="0.6"/>

  <!-- 接続データポイント -->
  <circle cx="90" cy="55" r="3" fill="#512da8" opacity="0.5"/>
  <circle cx="90" cy="105" r="3" fill="#1976d2" opacity="0.5"/>
  <circle cx="310" cy="55" r="3" fill="#512da8" opacity="0.5"/>
  <circle cx="310" cy="105" r="3" fill="#1976d2" opacity="0.5"/>
</svg>
